<svg xmlns="http://www.w3.org/2000/svg" viewBox="0 0 20 10">
  <rect width="20" height="10" fill="#00008b"/>
  <g transform="translate(0,0) scale(0.5)">
    <path d="M0,0 L20,10 M20,0 L0,10" stroke="#fff" stroke-width="2"/>
    <path d="M0,0 L20,10 M20,0 L0,10" stroke="#cf142b" stroke-width="1.2"/>
    <path d="M10,0 L10,10 M0,5 L20,5" stroke="#fff" stroke-width="3.5"/>
    <path d="M10,0 L10,10 M0,5 L20,5" stroke="#cf142b" stroke-width="2"/>
  </g>
  <g fill="#cf142b" stroke="#fff" stroke-width="0.1">
    <path d="M15,2 L15.2,2.5 L15.7,2.5 L15.3,2.8 L15.5,3.3 L15,3 Z"/>
    <path d="M17.5,4 L17.7,4.5 L18.2,4.5 L17.8,4.8 L18,5.3 L17.5,5 Z"/>
    <path d="M15,7 L15.2,7.5 L15.7,7.5 L15.3,7.8 L15.5,8.3 L15,8 Z"/>
  </g>
</svg>